/* XPM */
static char * connect_xpm[] = {
"16 16 12 1",
" 	c None",
".	c #000000",
"+	c #000080",
"@	c #808080",
"#	c #C0C0C0",
"$	c #FFFFFF",
"%	c #00FFFF",
"&	c #0000FF",
"*	c #008080",
"=	c #800080",
"-	c #008000",
";	c #00FF00",
"    @@@         ",
"  @@.;---@     @",
" @.;;---+.+++++@",
" @-;--&&+.+%%%*@",
"@&&-&&&&+.*%%%*@",
"&#@@@@@@+=&***&=",
".#$$$$$$$.$$.$#@",
".#$+++++$.@$@#@@",
".#$+$$%*$.++++++",
".#$*$%$*$.##%###",
".@$&***&$.##.###",
"#..$$$$$$.###.%#",
".#.......+#%.%#%",
".@..$.$.$@+.....",
"..@#@#@#@#+     ",
" .+++++++++     "};
